<?xml version="1.0" encoding="utf-8"?>
<!-- Generator: Adobe Illustrator 25.2.1, SVG Export Plug-In . SVG Version: 6.00 Build 0)  -->
<svg version="1.1" id="Layer_1" xmlns="http://www.w3.org/2000/svg" xmlns:xlink="http://www.w3.org/1999/xlink" x="0px" y="0px"
	 viewBox="0 0 36 21" style="enable-background:new 0 0 36 21;" xml:space="preserve">
<style type="text/css">
	.st0{fill:#FFFFFF;}
</style>
<g>
	<path class="st0" d="M10.4,20.9c-0.3,0-0.5-0.1-0.7-0.3l-9.4-9.4c-0.1-0.1-0.2-0.2-0.2-0.3C0,10.7,0,10.6,0,10.4l0,0c0,0,0,0,0,0
		l0,0c0-0.1,0-0.3,0.1-0.4c0-0.1,0.1-0.2,0.2-0.3l9.4-9.4c0.4-0.4,1-0.4,1.4,0s0.4,1,0,1.4L3.4,9.4H35c0.6,0,1,0.4,1,1s-0.4,1-1,1
		H3.4l7.7,7.7c0.4,0.4,0.4,1,0,1.4C11,20.8,10.7,20.9,10.4,20.9z"/>
</g>
</svg>
