<svg width="18" height="21" viewBox="0 0 18 21" fill="none" xmlns="http://www.w3.org/2000/svg">
<path d="M8.79 11.3694C9.30208 11.3694 9.80265 11.2176 10.2284 10.9331C10.6542 10.6486 10.9861 10.2442 11.182 9.7711C11.378 9.29801 11.4293 8.77743 11.3294 8.27519C11.2295 7.77295 10.9829 7.31162 10.6208 6.94953C10.2587 6.58744 9.79734 6.34085 9.29511 6.24095C8.79287 6.14105 8.27229 6.19232 7.79919 6.38828C7.3261 6.58425 6.92174 6.9161 6.63724 7.34187C6.35275 7.76765 6.2009 8.26822 6.2009 8.7803C6.2009 9.46697 6.47368 10.1255 6.95923 10.6111C7.44478 11.0966 8.10333 11.3694 8.79 11.3694ZM7.87087 20.3147C7.99121 20.4361 8.13439 20.5324 8.29215 20.5981C8.4499 20.6638 8.6191 20.6977 8.79 20.6977C8.9609 20.6977 9.1301 20.6638 9.28785 20.5981C9.44561 20.5324 9.58879 20.4361 9.70913 20.3147L15.0038 15.0071C16.2336 13.778 17.0712 12.2117 17.4108 10.5065C17.7503 8.80131 17.5765 7.0337 16.9113 5.42727C16.2462 3.82084 15.1195 2.44776 13.6739 1.4817C12.2283 0.51564 10.5287 0 8.79 0C7.05131 0 5.35167 0.51564 3.90606 1.4817C2.46046 2.44776 1.33382 3.82084 0.668663 5.42727C0.0035042 7.0337 -0.170299 8.80131 0.169238 10.5065C0.508774 12.2117 1.3464 13.778 2.57616 15.0071L7.87087 20.3147ZM2.615 8.18481C2.70345 7.26181 2.99691 6.37023 3.47396 5.57514C3.95101 4.78006 4.59961 4.10155 5.37239 3.58915C6.38758 2.92259 7.57553 2.56744 8.79 2.56744C10.0045 2.56744 11.1924 2.92259 12.2076 3.58915C12.9752 4.09979 13.6202 4.77418 14.096 5.56384C14.5719 6.3535 14.8668 7.23879 14.9597 8.15605C15.0525 9.07331 14.9409 9.99975 14.6329 10.8687C14.325 11.7377 13.8283 12.5277 13.1785 13.1818L8.79 17.5703L4.40147 13.1818C3.75099 12.534 3.25311 11.7494 2.94408 10.885C2.63504 10.0206 2.52262 9.09814 2.615 8.18481Z" fill="#71DD49"/>
</svg>
