<svg width="21" height="21" viewBox="0 0 21 21" fill="none" xmlns="http://www.w3.org/2000/svg">
<path d="M5.42026 0H2.21053C0.989686 0 0 0.989687 0 2.21053C0 12.5877 8.41233 21 18.7895 21C20.0103 21 21 20.0103 21 18.7895V15.5797C21 14.6256 20.4191 13.7676 19.5332 13.4133L16.4583 12.1833C15.6626 11.865 14.7564 12.0086 14.098 12.5573L13.3036 13.2192C12.3765 13.9918 11.0133 13.9299 10.1599 13.0766L7.92339 10.8401C7.07005 9.98672 7.00821 8.62348 7.78079 7.69638L8.44275 6.90204C8.99141 6.24364 9.13498 5.33744 8.81668 4.54169L7.5867 1.46676C7.23235 0.580885 6.37437 0 5.42026 0Z" fill="black"/>
</svg>
